<svg xmlns="http://www.w3.org/2000/svg" width="138" height="16" fill="none" viewBox="0 0 138 16"><path fill="#fff" d="M2.16 5.8 0 7.88l2.16 2.1 2.17-2.1zM135.56 5.8l-2.16 2.09 2.17 2.1 2.16-2.1z"/><path fill="#fff" fill-rule="evenodd" d="M20.93 7.03q.16-.33.16-.7V1.67c0-.44-.19-.86-.51-1.18A1.8 1.8 0 0 0 19.36 0h-5.93v15.78h5.93c.46 0 .9-.18 1.22-.5.32-.3.5-.73.51-1.17V8.95a1.9 1.9 0 0 0-.63-1.35q.3-.23.47-.57m-4.7-4.32h2.04v3.8h-2.04zm0 6.51h2.04v3.83h-2.04zM33.09.5a1.8 1.8 0 0 0-1.22-.5h-4.2a1.8 1.8 0 0 0-1.23.49 1.7 1.7 0 0 0-.5 1.18v12.45c0 .44.18.86.5 1.17.33.31.77.5 1.22.5h4.21c.46-.01.9-.2 1.21-.5.33-.31.51-.73.52-1.17V1.67c0-.44-.19-.86-.51-1.18m-4.35 2.2h2.03v10.35h-2.03zM42.33 9.22l1.14 6.56h2.8L45.1 9.06q.45-.2.72-.6t.27-.88V1.67a1.6 1.6 0 0 0-.5-1.18A1.7 1.7 0 0 0 44.4 0h-5.93v15.78h2.8V9.22zm-1.08-6.51h2.04v3.8h-2.04zM57.74.5a1.8 1.8 0 0 0-1.22-.5H52.3c-.46 0-.9.18-1.21.5-.32.3-.5.73-.5 1.17v12.45c0 .44.19.86.51 1.17q.51.48 1.22.5h4.2c.45-.01.89-.2 1.21-.5.32-.31.5-.73.52-1.17V1.67c0-.44-.2-.86-.51-1.18m-4.35 2.2h2.03v10.35h-2.03zM70.25.5a1.8 1.8 0 0 0-1.22-.5H63.1v15.79h5.93c.45-.01.89-.2 1.21-.5.32-.31.5-.73.52-1.17V1.67c0-.44-.2-.86-.51-1.18M65.9 2.7h2.03v10.35H65.9z" clip-rule="evenodd"/><path fill="#fff" d="M78.55 0h-2.8v15.78h2.8zM91.02 15.78V0H88.2v6.47L86.15 0h-2.78v15.78h2.8v-6.9l2.04 6.9zM103.01 7a1.8 1.8 0 0 0-1.21-.48h-3.12V2.7h2.03v2.78l2.82-.63v-3.2c0-.43-.19-.85-.5-1.17A1.8 1.8 0 0 0 101.8 0h-4.2a1.8 1.8 0 0 0-1.22.49 1.7 1.7 0 0 0-.5 1.18v5.89a1.6 1.6 0 0 0 .5 1.18 1.7 1.7 0 0 0 1.23.48h3.1v3.84h-2.03v-2.82l-2.8.63v3.25c0 .44.18.86.5 1.17q.51.48 1.22.5h4.2c.45-.01.89-.2 1.21-.5.32-.31.5-.73.52-1.17V8.19c0-.45-.2-.87-.52-1.18M116.39 15.79l-2.62-7.92L116.41 0h-2.85l-2.14 6.52h-.24V0h-2.8v15.78h2.8V9.23h.26l2.1 6.46.02.1zM123.77 0h-2.8v15.78h2.8z"/></svg>