<svg xmlns="http://www.w3.org/2000/svg" width="16" height="16" fill="none" viewBox="0 0 16 16"><rect width="16" height="16" fill="#000" rx="2"/><path fill="#fff" d="M6.55 7h.14q.88.04 1.3.49.46-.45 1.32-.49h.14c.78.05 1.3.4 1.82.76q.48.36 1.05.6.25.1.5.1c.27-.03.44-.29.4-.57-.03-.31-.34-.58-.69-.43l-.13.09q-.04.07-.11.05c-.06-.05-.01-.12.02-.16q.11-.18.28-.26a.6.6 0 0 1 .37-.06c.59.04 1.12.55 1.03 1.32-.2 1.15-1.27 1.46-2.54 1.56h-.42A5 5 0 0 1 8 8.87 5.2 5.2 0 0 1 4.96 10h-.4C3.28 9.89 2.2 9.59 2 8.4c-.07-.83.44-1.24 1.03-1.29a.7.7 0 0 1 .65.31v.02c.03.04.08.1.03.16q-.07 0-.1-.05l-.02-.01a.4.4 0 0 0-.3-.13c-.4-.01-.64.43-.48.78a.5.5 0 0 0 .36.26q.26 0 .5-.1.21-.08.4-.2.3-.17.59-.36A4 4 0 0 1 6.55 7"/></svg>