<svg xmlns="http://www.w3.org/2000/svg" width="184" height="22" fill="none" viewBox="0 0 184 22"><path fill="#dbb590" d="M2.89 7.72 0 10.52l2.89 2.8 2.9-2.8zM181.07 7.73l-2.9 2.78 2.9 2.8 2.9-2.8z"/><path fill="#dbb590" fill-rule="evenodd" d="M27.95 9.37q.22-.44.22-.94v-6.2a2.2 2.2 0 0 0-.68-1.57A2.4 2.4 0 0 0 25.86 0h-7.92v21.04h7.93a2.4 2.4 0 0 0 1.62-.66c.43-.42.67-.98.68-1.56v-6.89a2.5 2.5 0 0 0-.84-1.8q.4-.3.62-.76M21.7 3.61h2.7v5.08h-2.7zm0 8.69h2.7v5.1h-2.7zM44.2.66A2.4 2.4 0 0 0 42.57 0h-5.62a2.4 2.4 0 0 0-1.63.65 2.2 2.2 0 0 0-.68 1.58v16.6c0 .58.25 1.14.69 1.56s1.01.65 1.62.66h5.62a2.4 2.4 0 0 0 1.62-.67c.43-.41.68-.97.69-1.56V2.22A2.2 2.2 0 0 0 44.2.67M38.4 3.6h2.7v13.8h-2.7zM56.55 12.3l1.51 8.74h3.74l-1.56-8.95q.6-.28.96-.8.36-.55.37-1.19V2.23A2.1 2.1 0 0 0 60.9.66 2.3 2.3 0 0 0 59.29 0h-7.92v21.04h3.74V12.3zM55.1 3.6h2.72V8.7H55.1zM77.12.66A2.4 2.4 0 0 0 75.49 0h-5.64c-.6 0-1.18.24-1.61.66s-.67.98-.66 1.57v16.6c0 .58.25 1.14.68 1.56s1.01.65 1.62.66h5.61a2.4 2.4 0 0 0 1.62-.67c.43-.41.68-.97.7-1.56V2.22a2.2 2.2 0 0 0-.7-1.56m-5.8 2.95h2.7v13.8h-2.7zM93.83.66A2.4 2.4 0 0 0 92.2 0h-7.92v21.05h7.92a2.4 2.4 0 0 0 1.62-.67c.43-.41.68-.97.69-1.56V2.22a2.2 2.2 0 0 0-.68-1.56m-5.8 2.95h2.7v13.8h-2.7z" clip-rule="evenodd"/><path fill="#dbb590" d="M104.92 0h-3.74v21.04h3.74zM121.57 21.04V0h-3.75v8.62L115.07 0h-3.7v21.04h3.72v-9.19l2.74 9.2zM137.6 9.35a2.4 2.4 0 0 0-1.63-.66h-4.16V3.6h2.7v3.72l3.78-.85V2.23a2.2 2.2 0 0 0-.68-1.57 2.4 2.4 0 0 0-1.63-.66h-5.62a2.4 2.4 0 0 0-1.62.65 2.2 2.2 0 0 0-.68 1.58v7.85a2.2 2.2 0 0 0 .68 1.57 2.3 2.3 0 0 0 1.63.65h4.15v5.11h-2.71v-3.76l-3.75.84v4.33c.01.59.25 1.15.68 1.57.43.41 1.01.65 1.62.66h5.61a2.4 2.4 0 0 0 1.62-.67c.43-.41.68-.97.69-1.56v-7.9a2.2 2.2 0 0 0-.68-1.57M155.46 21.05l-3.5-10.56L155.5 0h-3.8l-2.87 8.69h-.31V0h-3.74v21.04h3.74V12.3h.34l2.8 8.62.04.13zM165.33 0h-3.75v21.04h3.74z"/></svg>