<svg xmlns="http://www.w3.org/2000/svg" width="16" height="13" fill="none" viewBox="0 0 16 13"><path fill="#fff" d="M15.52 1.5q-.37.16-.77.28.47-.53.7-1.22a.26.26 0 0 0-.38-.3q-.84.5-1.79.71a3.41 3.41 0 0 0-5.77 2.88A8.7 8.7 0 0 1 1.52.67.26.26 0 0 0 1.1.7a3.4 3.4 0 0 0 .35 3.93 3 3 0 0 1-.45-.2.26.26 0 0 0-.38.21v.05c0 1.22.66 2.33 1.67 2.93l-.26-.04a.26.26 0 0 0-.3.33 3.4 3.4 0 0 0 2.5 2.29 6 6 0 0 1-3.94.87.26.26 0 0 0-.17.47A9 9 0 0 0 5.09 13a8.8 8.8 0 0 0 6.85-3 9.5 9.5 0 0 0 2.37-6.5q.9-.69 1.53-1.62a.26.26 0 0 0-.32-.38"/></svg>