<svg xmlns="http://www.w3.org/2000/svg" width="16" height="10" fill="none" viewBox="0 0 16 10"><path fill="#fff" d="m15.92 9.03-.06-.12a9 9 0 0 0-1.6-2.01v-.02l-.02-.01v-.01h-.01a10 10 0 0 1-.68-.75.8.8 0 0 1-.11-.74q.09-.27.75-1.2l.54-.77q1.44-2.1 1.25-2.68l-.05-.1q-.05-.08-.26-.14a1 1 0 0 0-.53-.02l-2.4.01a.3.3 0 0 0-.17 0l-.1.04-.05.02-.03.03-.1.1-.08.15a16 16 0 0 1-1.45 3.04 5 5 0 0 1-.75.92q-.15.13-.22.1l-.14-.03a1 1 0 0 1-.2-.23q-.06-.14-.09-.35a5 5 0 0 1-.02-.81v-.38l.04-1.4-.02-.92-.09-.29A.5.5 0 0 0 9.1.24a1 1 0 0 0-.28-.12Q8.37.02 7.7 0a5 5 0 0 0-2 .22q-.16.1-.31.27-.15.2-.04.22.5.09.7.4l.06.1q.06.12.11.42t.08.67a8 8 0 0 1-.2 2.3q-.06.18-.1.2l-.03.05a1 1 0 0 1-.23.05q-.12 0-.28-.13-.17-.12-.35-.35a5 5 0 0 1-.4-.62q-.22-.4-.47-.95l-.13-.27A22 22 0 0 1 3.38.9a.6.6 0 0 0-.2-.29L3.14.58 3.01.5 2.8.44.53.46Q.18.46.06.63L.02.7 0 .83q0 .1.05.25a31 31 0 0 0 3 5.78 19 19 0 0 0 .82 1.1l.2.23q.21.22.6.52.38.3.85.6a4.4 4.4 0 0 0 2.31.64h.96q.3-.03.44-.2l.04-.05.06-.17.03-.25q0-.4.05-.7.06-.32.14-.48a1 1 0 0 1 .33-.4l.06-.03q.21-.07.47.14.27.21.51.53l.57.7q.34.4.58.59l.17.1q.17.12.43.2.27.1.47.05l2.13-.03q.32 0 .5-.12.16-.11.2-.25t0-.3z"/></svg>